# Alias OBJ Model File
# Exported from SketchUp, (c) 2000-2012 Trimble Navigation Limited
# File units = inches

mtllib streetsign.mtl

g Mesh1 Model

usemtl Color_M02
v 53.7804 0 -10.6424
vt -10.6424 0
vn -1 0 -0
v 53.7804 0 -7.90466
vt -7.90466 0
v 53.7804 98.4038 -7.90466
vt -7.90466 98.4038
v 53.7804 98.4038 -8.38868
vt -8.38868 98.4038
v 53.7804 98.4038 -8.73367
vt -8.73367 98.4038
v 53.7804 98.4038 -9.77728
vt -9.77728 98.4038
v 53.7804 98.4038 -10.1341
vt -10.1341 98.4038
v 53.7804 98.4038 -10.6424
vt -10.6424 98.4038
f 1/1/1 2/2/1 3/3/1 4/4/1 5/5/1 6/6/1 7/7/1 8/8/1 

v 56.7529 0 -7.90466
vt -56.7529 7.90466
vn 0 -1 -0
vt -53.7804 7.90466
vt -53.7804 10.6424
v 56.7529 0 -10.6424
vt -56.7529 10.6424
v 56.7529 0 -9.94663
vt -56.7529 9.94663
v 54.7191 0 -9.94663
vt -54.7191 9.94663
v 54.7191 0 -8.57618
vt -54.7191 8.57618
v 56.7529 0 -8.57618
vt -56.7529 8.57618
f 9/9/2 2/10/2 1/11/2 10/12/2 11/13/2 12/14/2 13/15/2 14/16/2 

vt 53.7804 0
vn 0 0 1
vt 56.7529 0
v 56.7529 98.4038 -7.90466
vt 56.7529 98.4038
vt 53.7804 98.4038
f 2/17/3 9/18/3 15/19/3 3/20/3 

vt 7.90466 0
vn 1 0 -0
vt 8.57618 0
v 56.7529 98.4038 -8.57618
vt 8.57618 98.4038
v 56.7529 98.4038 -8.38868
vt 8.38868 98.4038
vt 7.90466 98.4038
f 9/21/4 14/22/4 16/23/4 17/24/4 15/25/4 

v 56.2835 97.6114 -8.57618
vt -56.2835 97.6114
vn 0 0 -1
v 56.2835 98.4038 -8.57618
vt -56.2835 98.4038
vt -56.7529 98.4038
vt -56.7529 0
vt -54.7191 0
v 54.7191 97.6114 -8.57618
vt -54.7191 97.6114
f 18/26/5 19/27/5 16/28/5 14/29/5 13/30/5 20/31/5 

v 56.2835 97.6114 -8.73367
vt 8.73367 97.6114
v 56.2835 98.4038 -8.73367
vt 8.73367 98.4038
vt 8.57618 97.6114
f 21/32/4 22/33/4 19/23/4 18/34/4 

v 54.7191 97.6114 -8.73367
v 54.7191 98.4038 -8.73367
vt -54.7191 98.4038
f 23/31/5 24/35/5 22/27/5 21/26/5 

v 54.7191 97.6114 -9.94663
vt 9.94663 97.6114
v 54.7191 97.6114 -9.77728
vt 9.77728 97.6114
v 54.7191 98.4038 -9.77728
vt 9.77728 98.4038
vt 9.94663 0
f 25/36/4 26/37/4 27/38/4 24/33/4 23/32/4 20/34/4 13/22/4 12/39/4 

vt -54.7191 9.77728
v 56.2835 97.6114 -9.94663
vt -56.2835 9.94663
v 56.2835 97.6114 -9.77728
vt -56.2835 9.77728
f 26/40/2 25/14/2 28/41/2 29/42/2 

v 56.7529 98.4038 -9.94663
v 56.2835 98.4038 -9.94663
vt 56.2835 98.4038
vt 56.2835 97.6114
vt 54.7191 97.6114
vt 54.7191 0
f 30/19/3 31/43/3 28/44/3 25/45/3 12/46/3 11/18/3 

v 56.7529 98.4038 -10.1341
vt -56.7529 10.1341
v 61.9776 98.4038 -10.1341
vt -61.9776 10.1341
v 61.9776 98.4038 -8.38868
vt -61.9776 8.38868
vt -56.7529 8.38868
vt -56.2835 8.57618
vt -56.2835 8.73367
vt -54.7191 8.73367
v 56.2835 98.4038 -9.77728
f 32/47/2 33/48/2 34/49/2 17/50/2 16/16/2 19/51/2 22/52/2 24/53/2 27/40/2 35/42/2 31/41/2 30/13/2 

v 48.523 98.4038 -10.1341
vt -48.523 98.4038
v 48.523 100.092 -10.1341
vt -48.523 100.092
v 61.9776 100.092 -10.1341
vt -61.9776 100.092
vt -61.9776 98.4038
v 56.2835 98.4038 -10.1341
vt -53.7804 98.4038
f 36/54/5 37/55/5 38/56/5 33/57/5 32/28/5 39/27/5 7/58/5 

v 48.523 100.092 -9.85393
vt -9.85393 100.092
vt -10.1341 100.092
v 48.523 98.4038 -8.38868
v 48.523 100.092 -8.38868
vt -8.38868 100.092
v 48.523 100.092 -8.67074
vt -8.67074 100.092
v 48.523 98.8564 -8.67074
vt -8.67074 98.8564
v 48.523 98.8564 -9.85393
vt -9.85393 98.8564
f 40/59/1 37/60/1 36/7/1 41/4/1 42/61/1 43/62/1 44/63/1 45/64/1 

vt 48.523 10.1341
vn 0 1 -0
vt 48.523 9.85393
v 61.9776 100.092 -9.85393
vt 61.9776 9.85393
vt 61.9776 10.1341
f 37/65/6 40/66/6 46/67/6 38/68/6 

usemtl _
vt -48.523 98.8564
vn 9.33889e-18 3.58675e-17 -1
v 36.942 98.8564 -9.85393
vt -36.942 98.8564
v 36.6158 98.8959 -9.85393
vt -36.6158 98.8959
v 36.2972 98.9761 -9.85393
vt -36.2972 98.9761
v 35.9911 99.0957 -9.85393
vt -35.9911 99.0957
v 35.7026 99.2529 -9.85393
vt -35.7026 99.2529
v 35.4361 99.4451 -9.85393
vt -35.4361 99.4451
v 35.196 99.6693 -9.85393
vt -35.196 99.6693
v 34.9859 99.9219 -9.85393
vt -34.9859 99.9219
v 34.8093 100.199 -9.85393
vt -34.8093 100.199
v 34.6689 100.496 -9.85393
vt -34.6689 100.496
v 34.567 100.808 -9.85393
vt -34.567 100.808
v 34.5052 101.131 -9.85393
vt -34.5052 101.131
v 34.4845 101.459 -9.85393
vt -34.4845 101.459
v 34.4845 107.511 -9.85393
vt -34.4845 107.511
v 34.5445 107.808 -9.85393
vt -34.5445 107.808
v 34.6357 108.097 -9.85393
vt -34.6357 108.097
v 34.7572 108.375 -9.85393
vt -34.7572 108.375
v 34.9075 108.638 -9.85393
vt -34.9075 108.638
v 35.085 108.884 -9.85393
vt -35.085 108.884
v 35.2877 109.11 -9.85393
vt -35.2877 109.11
v 35.5132 109.312 -9.85393
vt -35.5132 109.312
v 35.759 109.49 -9.85393
vt -35.759 109.49
v 36.0223 109.64 -9.85393
vt -36.0223 109.64
v 36.3 109.762 -9.85393
vt -36.3 109.762
v 36.5892 109.853 -9.85393
vt -36.5892 109.853
v 36.8864 109.913 -9.85393
vt -36.8864 109.913
v 72.5854 109.913 -9.85393
vt -72.5854 109.913
v 72.8846 109.866 -9.85393
vt -72.8846 109.866
v 73.1771 109.787 -9.85393
vt -73.1771 109.787
v 73.4595 109.677 -9.85393
vt -73.4595 109.677
v 73.7286 109.538 -9.85393
vt -73.7286 109.538
v 73.9813 109.371 -9.85393
vt -73.9813 109.371
v 74.2149 109.178 -9.85393
vt -74.2149 109.178
v 74.4265 108.962 -9.85393
vt -74.4265 108.962
v 74.6139 108.724 -9.85393
vt -74.6139 108.724
v 74.7749 108.467 -9.85393
vt -74.7749 108.467
v 74.9076 108.195 -9.85393
vt -74.9076 108.195
v 75.0106 107.91 -9.85393
vt -75.0106 107.91
v 75.0826 107.616 -9.85393
vt -75.0826 107.616
v 75.0826 101.308 -9.85393
vt -75.0826 101.308
v 75.0308 100.979 -9.85393
vt -75.0308 100.979
v 74.939 100.659 -9.85393
vt -74.939 100.659
v 74.8087 100.353 -9.85393
vt -74.8087 100.353
v 74.6418 100.065 -9.85393
vt -74.6418 100.065
v 74.4408 99.7997 -9.85393
vt -74.4408 99.7997
v 74.2088 99.561 -9.85393
vt -74.2088 99.561
v 73.9493 99.3526 -9.85393
vt -73.9493 99.3526
v 73.6661 99.1776 -9.85393
vt -73.6661 99.1776
v 73.3636 99.0387 -9.85393
vt -73.3636 99.0387
v 73.0464 98.938 -9.85393
vt -73.0464 98.938
v 72.7192 98.8769 -9.85393
vt -72.7192 98.8769
v 72.3869 98.8564 -9.85393
vt -72.3869 98.8564
v 61.9776 98.8564 -9.85393
vt -61.9776 98.8564
f 45/69/7 47/70/7 48/71/7 49/72/7 50/73/7 51/74/7 52/75/7 53/76/7 54/77/7 55/78/7 56/79/7 57/80/7 58/81/7 59/82/7 60/83/7 61/84/7 62/85/7 63/86/7 64/87/7 65/88/7 66/89/7 67/90/7 68/91/7 69/92/7 70/93/7 71/94/7 72/95/7 73/96/7 74/97/7 75/98/7 76/99/7 77/100/7 78/101/7 79/102/7 80/103/7 81/104/7 82/105/7 83/106/7 84/107/7 85/108/7 86/109/7 87/110/7 88/111/7 89/112/7 90/113/7 91/114/7 92/115/7 93/116/7 94/117/7 95/118/7 96/119/7 97/120/7 98/121/7 99/122/7 46/56/7 40/55/7 

usemtl Color_M02
v 36.942 98.8564 -8.67074
vt -36.942 8.67074
vt -36.942 9.85393
vt -48.523 9.85393
vt -48.523 8.67074
f 100/123/2 47/124/2 45/125/2 44/126/2 

vt -8.67074 -24.8003
vn -0.120116 -0.99276 -1.79013e-29
v 36.6158 98.8959 -8.67074
vt -8.67074 -24.4717
vn -0.18244 -0.983217 -8.96847e-30
vt -9.85393 -24.4717
vt -9.85393 -24.8003
f 100/127/8 101/128/9 48/129/9 47/130/8 

usemtl _
v 34.4845 107.511 -8.67074
vt 34.4845 107.511
vn 1.58292e-17 6.60982e-17 1
v 34.4845 101.459 -8.67074
vt 34.4845 101.459
v 34.5052 101.131 -8.67074
vt 34.5052 101.131
v 34.567 100.808 -8.67074
vt 34.567 100.808
v 34.6689 100.496 -8.67074
vt 34.6689 100.496
v 34.8093 100.199 -8.67074
vt 34.8093 100.199
v 34.9859 99.9219 -8.67074
vt 34.9859 99.9219
v 35.196 99.6693 -8.67074
vt 35.196 99.6693
v 35.4361 99.4451 -8.67074
vt 35.4361 99.4451
v 35.7026 99.2529 -8.67074
vt 35.7026 99.2529
v 35.9911 99.0957 -8.67074
vt 35.9911 99.0957
v 36.2972 98.9761 -8.67074
vt 36.2972 98.9761
vt 36.6158 98.8959
vt 36.942 98.8564
vt 48.523 98.8564
vt 48.523 100.092
v 61.9776 100.092 -8.67074
vt 61.9776 100.092
v 61.9776 98.8564 -8.67074
vt 61.9776 98.8564
v 72.3869 98.8564 -8.67074
vt 72.3869 98.8564
v 72.7192 98.8769 -8.67074
vt 72.7192 98.8769
v 73.0464 98.938 -8.67074
vt 73.0464 98.938
v 73.3636 99.0387 -8.67074
vt 73.3636 99.0387
v 73.6661 99.1776 -8.67074
vt 73.6661 99.1776
v 73.9493 99.3526 -8.67074
vt 73.9493 99.3526
v 74.2088 99.561 -8.67074
vt 74.2088 99.561
v 74.4408 99.7997 -8.67074
vt 74.4408 99.7997
v 74.6418 100.065 -8.67074
vt 74.6418 100.065
v 74.8087 100.353 -8.67074
vt 74.8087 100.353
v 74.939 100.659 -8.67074
vt 74.939 100.659
v 75.0308 100.979 -8.67074
vt 75.0308 100.979
v 75.0826 101.308 -8.67074
vt 75.0826 101.308
v 75.0826 107.616 -8.67074
vt 75.0826 107.616
v 75.0106 107.91 -8.67074
vt 75.0106 107.91
v 74.9076 108.195 -8.67074
vt 74.9076 108.195
v 74.7749 108.467 -8.67074
vt 74.7749 108.467
v 74.6139 108.724 -8.67074
vt 74.6139 108.724
v 74.4265 108.962 -8.67074
vt 74.4265 108.962
v 74.2149 109.178 -8.67074
vt 74.2149 109.178
v 73.9813 109.371 -8.67074
vt 73.9813 109.371
v 73.7286 109.538 -8.67074
vt 73.7286 109.538
v 73.4595 109.677 -8.67074
vt 73.4595 109.677
v 73.1771 109.787 -8.67074
vt 73.1771 109.787
v 72.8846 109.866 -8.67074
vt 72.8846 109.866
v 72.5854 109.913 -8.67074
vt 72.5854 109.913
v 36.8864 109.913 -8.67074
vt 36.8864 109.913
v 36.5892 109.853 -8.67074
vt 36.5892 109.853
v 36.3 109.762 -8.67074
vt 36.3 109.762
v 36.0223 109.64 -8.67074
vt 36.0223 109.64
v 35.759 109.49 -8.67074
vt 35.759 109.49
v 35.5132 109.312 -8.67074
vt 35.5132 109.312
v 35.2877 109.11 -8.67074
vt 35.2877 109.11
v 35.085 108.884 -8.67074
vt 35.085 108.884
v 34.9075 108.638 -8.67074
vt 34.9075 108.638
v 34.7572 108.375 -8.67074
vt 34.7572 108.375
v 34.6357 108.097 -8.67074
vt 34.6357 108.097
v 34.5445 107.808 -8.67074
vt 34.5445 107.808
f 102/131/10 103/132/10 104/133/10 105/134/10 106/135/10 107/136/10 108/137/10 109/138/10 110/139/10 111/140/10 112/141/10 113/142/10 101/143/10 100/144/10 44/145/10 43/146/10 114/147/10 115/148/10 116/149/10 117/150/10 118/151/10 119/152/10 120/153/10 121/154/10 122/155/10 123/156/10 124/157/10 125/158/10 126/159/10 127/160/10 128/161/10 129/162/10 130/163/10 131/164/10 132/165/10 133/166/10 134/167/10 135/168/10 136/169/10 137/170/10 138/171/10 139/172/10 140/173/10 141/174/10 142/175/10 143/176/10 144/177/10 145/178/10 146/179/10 147/180/10 148/181/10 149/182/10 150/183/10 151/184/10 152/185/10 153/186/10 

usemtl Color_M02
vt -9.85393 107.511
vt -9.85393 101.459
vt -8.67074 101.459
vt -8.67074 107.511
f 60/187/1 59/188/1 103/189/1 102/190/1 

vt -8.67074 98.7556
vn -0.992057 -0.125787 -5.69302e-31
vt -8.67074 99.0842
vn -0.998012 -0.0630186 -1.13634e-30
vt -9.85393 99.0842
vt -9.85393 98.7556
f 104/191/11 103/192/12 59/193/12 58/194/11 

vt -8.67074 92.5093
vn -0.968355 -0.249575 -0
vt -8.67074 92.8379
vt -9.85393 92.8379
vt -9.85393 92.5093
f 105/195/13 104/196/11 58/197/11 57/198/13 

vt -8.67074 84.7909
vn -0.929271 -0.369399 -0
vt -8.67074 85.1195
vt -9.85393 85.1195
vt -9.85393 84.7909
f 106/199/14 105/200/13 57/201/13 56/202/14 

vt -8.67074 75.7229
vn -0.875424 -0.483355 -0
vt -8.67074 76.0515
vt -9.85393 76.0515
vt -9.85393 75.7229
f 107/203/15 106/204/14 56/205/14 55/206/15 

vt -8.67074 65.4494
vn -0.807671 -0.589633 -0
vt -8.67074 65.778
vt -9.85393 65.778
vt -9.85393 65.4494
f 108/207/16 107/208/15 55/209/15 54/210/16 

vt -8.67074 54.1337
vn -0.727088 -0.686544 -0
vt -8.67074 54.4622
vt -9.85393 54.4622
vt -9.85393 54.1337
f 109/211/17 108/212/16 54/213/16 53/214/17 

vt -8.67074 41.9553
vn -0.634955 -0.772549 -0
vt -8.67074 42.2839
vt -9.85393 42.2839
vt -9.85393 41.9553
f 110/215/18 109/216/17 53/217/17 52/218/18 

vt -8.67074 29.1079
vn -0.532736 -0.846282 -0
vt -8.67074 29.4365
vt -9.85393 29.4365
vt -9.85393 29.1079
f 111/219/19 110/220/18 52/221/18 51/222/19 

vt -8.67074 15.7955
vn -0.422053 -0.906571 -0
vt -8.67074 16.1241
vt -9.85393 16.1241
vt -9.85393 15.7955
f 112/223/20 111/224/19 51/225/19 50/226/20 

vt -8.67074 2.22959
vn -0.304666 -0.952459 -0
vt -8.67074 2.55815
vt -9.85393 2.55815
vt -9.85393 2.22959
f 113/227/21 112/228/20 50/229/20 49/230/21 

vt -8.67074 -11.3744
vt -8.67074 -11.0458
vt -9.85393 -11.0458
vt -9.85393 -11.3744
f 101/231/9 113/232/21 49/233/21 48/234/9 

vt -8.67074 112.207
vn -0.980256 0.197731 -0
vt -8.67074 112.51
vn -0.968329 0.249678 -0
vt -9.85393 112.51
vt -9.85393 112.207
f 102/235/22 153/236/23 61/237/23 60/238/22 

vt -8.67074 113.206
vt -8.67074 113.51
vn -0.936264 0.351298 -0
vt -9.85393 113.51
vt -9.85393 113.206
f 153/239/23 152/240/24 62/241/24 61/242/23 

vt -8.67074 112.919
vt -8.67074 113.222
vn -0.893567 0.44893 -0
vt -9.85393 113.222
vt -9.85393 112.919
f 152/243/24 151/244/25 63/245/25 62/246/24 

vt -8.67074 111.347
vt -8.67074 111.65
vn -0.840724 0.541464 -0
vt -9.85393 111.65
vt -9.85393 111.347
f 151/247/25 150/248/26 64/249/26 63/250/25 

vt -8.67074 108.509
vt -8.67074 108.812
vn -0.778334 0.62785 -0
vt -9.85393 108.812
vt -9.85393 108.509
f 150/251/26 149/252/27 65/253/27 64/254/26 

vt -8.67074 104.437
vt -8.67074 104.741
vn -0.707107 0.707107 -0
vt -9.85393 104.741
vt -9.85393 104.437
f 149/255/27 148/256/28 66/257/28 65/258/27 

vt -8.67074 99.1782
vt -8.67074 99.4814
vn -0.62785 0.778334 -0
vt -9.85393 99.4814
vt -9.85393 99.1782
f 148/259/28 147/260/29 67/261/29 66/262/28 

vt -8.67074 92.791
vt -8.67074 93.0942
vn -0.541464 0.840724 -0
vt -9.85393 93.0942
vt -9.85393 92.791
f 147/263/29 146/264/30 68/265/30 67/266/29 

vt -8.67074 85.3486
vt -8.67074 85.6517
vn -0.44893 0.893567 -0
vt -9.85393 85.6517
vt -9.85393 85.3486
f 146/267/30 145/268/31 69/269/31 68/270/30 

vt -8.67074 76.9352
vt -8.67074 77.2384
vn -0.351298 0.936264 -0
vt -9.85393 77.2384
vt -9.85393 76.9352
f 145/271/31 144/272/32 70/273/32 69/274/31 

vt -8.67074 67.6466
vt -8.67074 67.9498
vn -0.249678 0.968329 -8.9263e-31
vt -9.85393 67.9498
vt -9.85393 67.6466
f 144/275/32 143/276/33 71/277/33 70/278/32 

vt -8.67074 57.5881
vt -8.67074 57.8913
vn -0.197731 0.980256 -1.78272e-30
vt -9.85393 57.8913
vt -9.85393 57.5881
f 143/279/33 142/280/34 72/281/34 71/282/33 

vt 72.5854 9.85393
vt 36.8864 9.85393
vt 36.8864 8.67074
vt 72.5854 8.67074
f 73/283/6 72/284/6 142/285/6 141/286/6 

vt 8.67074 -54.5285
vn 0.15618 0.987729 -0
vt 8.67074 -54.8314
vn 0.208635 0.977994 8.42739e-16
vt 9.85393 -54.8314
vt 9.85393 -54.5285
f 141/287/35 140/288/36 74/289/36 73/290/35 

vt 8.67074 -41.7487
vt 8.67074 -42.0516
vn 0.311616 0.950208 1.72858e-15
vt 9.85393 -42.0516
vt 9.85393 -41.7487
f 140/291/36 139/292/37 75/293/37 74/294/36 

vt 8.67074 -28.4922
vt 8.67074 -28.7951
vn 0.411052 0.911612 1.80472e-15
vt 9.85393 -28.7951
vt 9.85393 -28.4922
f 139/295/37 138/296/38 76/297/38 75/298/37 

vt 8.67074 -14.9098
vt 8.67074 -15.2127
vn 0.505811 0.862645 1.86032e-15
vt 9.85393 -15.2127
vt 9.85393 -14.9098
f 138/299/38 137/300/39 77/301/39 76/302/38 

vt 8.67074 -1.15603
vt 8.67074 -1.45894
vn 0.594815 0.803863 1.89475e-15
vt 9.85393 -1.45894
vt 9.85393 -1.15603
f 137/303/39 136/304/40 78/305/40 77/306/39 

vt 8.67074 12.6126
vt 8.67074 12.3097
vn 0.677052 0.735935 1.90763e-15
vt 9.85393 12.3097
vt 9.85393 12.6126
f 136/307/40 135/308/41 79/309/41 78/310/40 

vt 8.67074 26.2395
vt 8.67074 25.9365
vn 0.751586 0.659635 1.8988e-15
vt 9.85393 25.9365
vt 9.85393 26.2395
f 135/311/41 134/312/42 80/313/42 79/314/41 

vt 8.67074 39.5695
vt 8.67074 39.2666
vn 0.81757 0.575829 1.86838e-15
vt 9.85393 39.2666
vt 9.85393 39.5695
f 134/315/42 133/316/43 81/317/43 80/318/42 

vt 8.67074 52.4511
vt 8.67074 52.1482
vn 0.874252 0.485473 1.81669e-15
vt 9.85393 52.1482
vt 9.85393 52.4511
f 133/319/43 132/320/44 82/321/44 81/322/43 

vt 8.67074 64.7377
vt 8.67074 64.4348
vn 0.920987 0.389593 1.74434e-15
vt 9.85393 64.4348
vt 9.85393 64.7377
f 132/323/44 131/324/45 83/325/45 82/326/44 

vt 8.67074 76.2894
vt 8.67074 75.9865
vn 0.957244 0.289281 8.51541e-16
vt 9.85393 75.9865
vt 9.85393 76.2894
f 131/327/45 130/328/46 84/329/46 83/330/45 

vt 8.67074 86.975
vt 8.67074 86.672
vn 0.97131 0.237818 -0
vt 9.85393 86.672
vt 9.85393 86.975
f 130/331/46 129/332/47 85/333/47 84/334/46 

vt 8.67074 101.308
vn 1 -2.25302e-15 -8.21635e-32
vt 9.85393 101.308
vt 9.85393 107.616
vt 8.67074 107.616
f 128/335/48 86/336/48 85/337/48 129/338/48 

vt 8.67074 111.757
vn 0.987819 -0.155606 1.22404e-18
vt 8.67074 111.425
vn 0.976387 -0.216027 6.13182e-19
vt 9.85393 111.425
vt 9.85393 111.757
f 128/339/49 127/340/50 87/341/50 86/342/49 

vt 8.67074 117.748
vt 8.67074 117.416
vn 0.942505 -0.334192 -0
vt 9.85393 117.416
vt 9.85393 117.748
f 127/343/50 126/344/51 88/345/51 87/346/50 

vt 8.67074 121.963
vt 8.67074 121.63
vn 0.89438 -0.447308 -0
vt 9.85393 121.63
vt 9.85393 121.963
f 126/347/51 125/348/52 89/349/52 88/350/51 

vt 8.67074 124.337
vt 8.67074 124.004
vn 0.83274 -0.553664 -0
vt 9.85393 124.004
vt 9.85393 124.337
f 125/351/52 124/352/53 90/353/53 89/354/52 

vt 8.67074 124.834
vt 8.67074 124.501
vn 0.758517 -0.651654 -0
vt 9.85393 124.501
vt 9.85393 124.834
f 124/355/53 123/356/54 91/357/54 90/358/53 

vt 8.67074 123.448
vt 8.67074 123.115
vn 0.672831 -0.739796 -0
vt 9.85393 123.115
vt 9.85393 123.448
f 123/359/54 122/360/55 92/361/55 91/362/54 

vt 8.67074 120.198
vt 8.67074 119.866
vn 0.576978 -0.81676 -0
vt 9.85393 119.866
vt 9.85393 120.198
f 122/363/55 121/364/56 93/365/56 92/366/55 

vt 8.67074 115.135
vt 8.67074 114.803
vn 0.472407 -0.881381 -0
vt 9.85393 114.803
vt 9.85393 115.135
f 121/367/56 120/368/57 94/369/57 93/370/56 

vt 8.67074 108.335
vt 8.67074 108.002
vn 0.360696 -0.932683 -0
vt 9.85393 108.002
vt 9.85393 108.335
f 120/371/57 119/372/58 95/373/58 94/374/57 

vt 8.67074 99.9
vt 8.67074 99.5671
vn 0.243536 -0.969892 -0
vt 9.85393 99.5671
vt 9.85393 99.9
f 119/375/58 118/376/59 96/377/59 95/378/58 

vt 8.67074 89.9579
vt 8.67074 89.6251
vn 0.122695 -0.992444 3.05225e-19
vt 9.85393 89.6251
vt 9.85393 89.9579
f 118/379/59 117/380/60 97/381/60 96/382/59 

vt 8.67074 78.659
vt 8.67074 78.3262
vn 0.0614636 -0.998109 6.09296e-19
vt 9.85393 78.3262
vt 9.85393 78.659
f 117/383/60 116/384/61 98/385/61 97/386/60 

vt -61.9776 9.85393
vt -72.3869 9.85393
vt -72.3869 8.67074
vt -61.9776 8.67074
f 99/387/2 98/388/2 116/389/2 115/390/2 

vt 8.67074 100.092
v 61.9776 100.092 -8.38868
vt 8.38868 100.092
vt 10.1341 98.4038
vt 10.1341 100.092
vt 9.85393 100.092
vt 9.85393 98.8564
vt 8.67074 98.8564
f 114/391/4 154/392/4 34/24/4 33/393/4 38/394/4 46/395/4 99/396/4 115/397/4 

vt 61.9776 8.38868
vt 61.9776 8.67074
vt 48.523 8.67074
vt 48.523 8.38868
f 154/398/6 114/399/6 43/400/6 42/401/6 

v 56.2835 98.4038 -8.38868
vt 61.9776 98.4038
vt 48.523 98.4038
f 4/20/3 155/43/3 17/19/3 34/402/3 154/147/3 42/146/3 41/403/3 

vt -56.2835 8.38868
vt -53.7804 8.38868
vt -53.7804 8.73367
f 22/52/2 19/51/2 155/404/2 4/405/2 5/406/2 24/53/2 

vt 56.7529 8.57618
vt 56.2835 8.57618
vt 56.2835 8.38868
vt 56.7529 8.38868
f 16/407/6 19/408/6 155/409/6 17/410/6 

vt 56.7529 7.90466
vt 53.7804 8.38868
vt 53.7804 7.90466
f 15/411/6 17/410/6 155/409/6 4/412/6 3/413/6 

vt -48.523 8.38868
vt -48.523 10.1341
vt -53.7804 10.1341
vt -53.7804 9.77728
f 4/405/2 41/414/2 36/415/2 7/416/2 6/417/2 5/406/2 

vt -56.2835 10.1341
f 31/41/2 35/42/2 27/40/2 6/417/2 7/416/2 39/418/2 

vt 9.94663 98.4038
f 28/36/4 31/419/4 35/38/4 29/37/4 

vt 54.7191 98.4038
f 27/420/3 26/45/3 29/44/3 35/43/3 

vt 54.7191 8.73367
vt 54.7191 9.77728
vt 53.7804 9.77728
vt 53.7804 8.73367
f 24/421/6 27/422/6 6/423/6 5/424/6 

vt 53.7804 10.6424
vt 53.7804 10.1341
vt 56.2835 10.1341
vt 56.7529 10.1341
v 56.7529 98.4038 -10.6424
vt 56.7529 10.6424
f 8/425/6 7/426/6 39/427/6 32/428/6 156/429/6 

vt 56.2835 9.94663
vt 56.7529 9.94663
f 31/430/6 30/431/6 32/428/6 39/427/6 

vt 10.6424 0
vt 10.6424 98.4038
f 30/419/4 11/39/4 10/432/4 156/433/4 32/393/4 

vt -53.7804 0
f 10/29/5 1/434/5 8/58/5 156/28/5 

f 20/15/2 23/53/2 21/52/2 18/51/2 

